<svg width="52" height="47" viewBox="0 0 52 47" fill="none" xmlns="http://www.w3.org/2000/svg">
<circle cx="5.2" cy="26.743" r="5.2" fill="#FDE5AE" fill-opacity="0.29"/>
<circle cx="8.17095" cy="10.4004" r="2.22857" fill="#FDE5AE" fill-opacity="0.29"/>
<path d="M19.944 5.47919C27.3277 -1.8264 38.9124 -1.8264 46.296 5.47919C53.9012 13.0039 53.9012 25.6157 46.296 33.1405C38.9124 40.4461 32.9934 30.2409 25.6097 22.9353C18.0046 15.4106 12.3388 13.0039 19.944 5.47919Z" fill="#FDE5AE" fill-opacity="0.29"/>
<rect opacity="0.3" x="13.7432" y="13.7422" width="13" height="15.6" rx="1.48571" fill="#663191"/>
<path fill-rule="evenodd" clip-rule="evenodd" d="M15.2289 18.9434C14.4083 18.9434 13.7432 19.6085 13.7432 20.4291V38.2576C13.7432 39.0782 14.4083 39.7434 15.2289 39.7434H38.2575C39.078 39.7434 39.7432 39.0782 39.7432 38.2576V20.4291C39.7432 19.6085 39.078 18.9434 38.2575 18.9434H15.2289ZM37.1438 29.3438C37.1438 30.7798 35.9798 31.9438 34.5438 31.9438C33.1079 31.9438 31.9438 30.7798 31.9438 29.3438C31.9438 27.9079 33.1079 26.7438 34.5438 26.7438C35.9798 26.7438 37.1438 27.9079 37.1438 29.3438Z" fill="#663191"/>
<path fill-rule="evenodd" clip-rule="evenodd" d="M40.1142 44.6952C43.875 44.6952 46.9237 41.6465 46.9237 37.8857C46.9237 34.1249 43.875 31.0762 40.1142 31.0762C36.3534 31.0762 33.3047 34.1249 33.3047 37.8857C33.3047 41.6465 36.3534 44.6952 40.1142 44.6952Z" fill="#FDB713"/>
<path fill-rule="evenodd" clip-rule="evenodd" d="M40.7945 34.4817C40.7945 34.1057 40.4896 33.8008 40.1136 33.8008C39.7375 33.8008 39.4326 34.1057 39.4326 34.4817V37.2053H36.7093C36.3332 37.2053 36.0283 37.5102 36.0283 37.8863C36.0283 38.2623 36.3332 38.5672 36.7093 38.5672H39.4326V41.2913C39.4326 41.6673 39.7375 41.9722 40.1136 41.9722C40.4896 41.9722 40.7945 41.6673 40.7945 41.2913V38.5672H43.5188C43.8949 38.5672 44.1997 38.2623 44.1997 37.8863C44.1997 37.5102 43.8949 37.2053 43.5188 37.2053H40.7945V34.4817Z" fill="white"/>
</svg>
