<svg width="36" height="36" viewBox="0 0 36 36" fill="none" xmlns="http://www.w3.org/2000/svg">
<path fill-rule="evenodd" clip-rule="evenodd" d="M6.5 10.5C5.39543 10.5 4.5 11.3954 4.5 12.5V26.5C4.5 27.6046 5.39543 28.5 6.5 28.5H29.5C30.6046 28.5 31.5 27.6046 31.5 26.5V12.5C31.5 11.3954 30.6046 10.5 29.5 10.5H6.5ZM12 19.5C12 22.8137 14.6863 25.5 18 25.5C21.3137 25.5 24 22.8137 24 19.5C24 16.1863 21.3137 13.5 18 13.5C14.6863 13.5 12 16.1863 12 19.5Z" fill="#663191"/>
<rect opacity="0.3" x="13.5" y="6" width="9" height="3" rx="1.5" fill="#663191"/>
<path opacity="0.3" fill-rule="evenodd" clip-rule="evenodd" d="M18 22.5C19.6569 22.5 21 21.1569 21 19.5C21 17.8431 19.6569 16.5 18 16.5C16.3431 16.5 15 17.8431 15 19.5C15 21.1569 16.3431 22.5 18 22.5Z" fill="#663191"/>
</svg>
