<svg width="70" height="57" viewBox="0 0 70 57" fill="none" xmlns="http://www.w3.org/2000/svg">
<circle cx="7" cy="36" r="7" fill="#FDE5AE"/>
<circle cx="11" cy="14" r="3" fill="#FDE5AE"/>
<path d="M26.8478 7.37583C36.7873 -2.45861 52.3822 -2.45861 62.3217 7.37583C72.5594 17.5053 72.5594 34.4827 62.3217 44.6122C52.3822 54.4466 44.4143 40.7089 34.4748 30.8745C24.237 20.745 16.6101 17.5053 26.8478 7.37583Z" fill="#FDE5AE"/>
<path fill-rule="evenodd" clip-rule="evenodd" d="M40.8921 40.872L44.7491 37.015C45.8144 35.9497 46.0785 34.3223 45.4048 32.9749L45.1862 32.5378C44.5125 31.1903 44.7766 29.5629 45.8418 28.4977L50.6242 23.7153C50.9659 23.3736 51.52 23.3736 51.8617 23.7153C51.9282 23.7818 51.9835 23.8586 52.0256 23.9427L53.9575 27.8066C55.4355 30.7625 54.8562 34.3326 52.5193 36.6695L42.0213 47.1674C39.4777 49.7111 35.7151 50.5993 32.3024 49.4617L28.0771 48.0533C27.6186 47.9005 27.3708 47.4049 27.5237 46.9465C27.5666 46.8176 27.639 46.7005 27.735 46.6045L32.3748 41.9647C33.44 40.8995 35.0674 40.6354 36.4149 41.3091L36.852 41.5277C38.1994 42.2014 39.8268 41.9373 40.8921 40.872Z" fill="#2D1145"/>
<path opacity="0.3" fill-rule="evenodd" clip-rule="evenodd" d="M43.0473 22.024L43.3711 18.539C37.7055 18.0125 32.0712 19.9916 27.9687 24.0942C23.8718 28.191 21.8923 33.8155 22.4114 39.4739L25.8967 39.1542C25.4717 34.5205 27.0898 29.9228 30.4435 26.569C33.802 23.2106 38.4077 21.5928 43.0473 22.024ZM42.424 28.9964L42.7589 25.5125C39.142 25.1648 35.5389 26.4238 32.9188 29.0439C30.3073 31.6554 29.0476 35.2437 29.384 38.8497L32.8689 38.5246C32.6282 35.9449 33.5266 33.3858 35.3936 31.5188C37.2668 29.6456 39.8365 28.7477 42.424 28.9964Z" fill="#2D1145"/>
</svg>
