<svg width="71" height="71" viewBox="0 0 71 71" fill="none" xmlns="http://www.w3.org/2000/svg">
<path d="M35.4853 56.5554C30.9757 56.5288 26.6015 55.0122 23.0433 52.2417C22.6083 51.8739 22.315 51.3661 22.2138 50.8055C22.1126 50.245 22.2098 49.6667 22.4888 49.17C22.5995 48.9355 22.7611 48.7287 22.9619 48.5646C23.1627 48.4005 23.3976 48.2834 23.6495 48.2218C23.9014 48.1601 24.1639 48.1555 24.4177 48.2083C24.6716 48.2611 24.9105 48.3699 25.1169 48.5268C28.0718 50.8544 31.7238 52.1201 35.4853 52.1201C39.2467 52.1201 42.8988 50.8544 45.8536 48.5268C46.06 48.3699 46.2989 48.2611 46.5528 48.2083C46.8067 48.1555 47.0691 48.1601 47.321 48.2218C47.5729 48.2834 47.8078 48.4005 48.0086 48.5646C48.2094 48.7287 48.371 48.9355 48.4817 49.17C48.7607 49.6667 48.8579 50.245 48.7567 50.8055C48.6555 51.3661 48.3622 51.8739 47.9272 52.2417C44.369 55.0122 39.9948 56.5288 35.4853 56.5554Z" fill="#663191"/>
<path d="M21.0694 33.2673C20.4812 33.2673 19.9171 33.0336 19.5011 32.6177C19.0852 32.2018 18.8516 31.6377 18.8516 31.0495V25.5049C18.8516 24.9167 19.0852 24.3526 19.5011 23.9367C19.9171 23.5208 20.4812 23.2871 21.0694 23.2871C21.6576 23.2871 22.2217 23.5208 22.6376 23.9367C23.0535 24.3526 23.2872 24.9167 23.2872 25.5049V31.0495C23.2872 31.6377 23.0535 32.2018 22.6376 32.6177C22.2217 33.0336 21.6576 33.2673 21.0694 33.2673Z" fill="#663191"/>
<path d="M49.9014 33.2673C49.3132 33.2673 48.7491 33.0336 48.3332 32.6177C47.9173 32.2018 47.6836 31.6377 47.6836 31.0495V25.5049C47.6836 24.9167 47.9173 24.3526 48.3332 23.9367C48.7491 23.5208 49.3132 23.2871 49.9014 23.2871C50.4896 23.2871 51.0537 23.5208 51.4697 23.9367C51.8856 24.3526 52.1192 24.9167 52.1192 25.5049V31.0495C52.1192 31.6377 51.8856 32.2018 51.4697 32.6177C51.0537 33.0336 50.4896 33.2673 49.9014 33.2673Z" fill="#663191"/>
<path d="M32.1583 44.3564C31.57 44.3564 31.0059 44.1228 30.59 43.7068C30.1741 43.2909 29.9404 42.7268 29.9404 42.1386C29.9404 41.5504 30.1741 40.9863 30.59 40.5704C31.0059 40.1544 31.57 39.9208 32.1583 39.9208C32.7465 39.9208 33.3106 39.6871 33.7265 39.2712C34.1424 38.8553 34.3761 38.2912 34.3761 37.703V25.5049C34.3761 24.9167 34.6097 24.3526 35.0257 23.9367C35.4416 23.5208 36.0057 23.2871 36.5939 23.2871C37.1821 23.2871 37.7462 23.5208 38.1621 23.9367C38.5781 24.3526 38.8117 24.9167 38.8117 25.5049V37.703C38.8117 39.4676 38.1107 41.1599 36.863 42.4077C35.6152 43.6554 33.9229 44.3564 32.1583 44.3564Z" fill="#663191"/>
<path d="M24.396 70.9713C7.76238 70.9713 0 63.2089 0 46.5752C0 45.987 0.233663 45.4229 0.649585 45.007C1.06551 44.5911 1.62962 44.3574 2.21782 44.3574C2.80602 44.3574 3.37014 44.5911 3.78606 45.007C4.20198 45.4229 4.43564 45.987 4.43564 46.5752C4.43564 60.9911 9.9802 66.5356 24.396 66.5356C24.9842 66.5356 25.5484 66.7693 25.9643 67.1852C26.3802 67.6011 26.6139 68.1653 26.6139 68.7535C26.6139 69.3417 26.3802 69.9058 25.9643 70.3217C25.5484 70.7376 24.9842 70.9713 24.396 70.9713Z" fill="#663191"/>
<path d="M68.7525 26.6139C68.1643 26.6139 67.6002 26.3802 67.1842 25.9643C66.7683 25.5484 66.5347 24.9842 66.5347 24.396C66.5347 9.9802 60.9901 4.43564 46.5743 4.43564C45.9861 4.43564 45.422 4.20198 45.006 3.78606C44.5901 3.37014 44.3564 2.80602 44.3564 2.21782C44.3564 1.62962 44.5901 1.06551 45.006 0.649585C45.422 0.233663 45.9861 0 46.5743 0C63.2079 0 70.9703 7.76238 70.9703 24.396C70.9703 24.9842 70.7366 25.5484 70.3207 25.9643C69.9048 26.3802 69.3407 26.6139 68.7525 26.6139Z" fill="#663191"/>
<path d="M2.21782 26.6139C1.62962 26.6139 1.06551 26.3802 0.649585 25.9643C0.233663 25.5484 0 24.9842 0 24.396C0 7.76238 7.76238 0 24.396 0C24.9842 0 25.5484 0.233663 25.9643 0.649585C26.3802 1.06551 26.6139 1.62962 26.6139 2.21782C26.6139 2.80602 26.3802 3.37014 25.9643 3.78606C25.5484 4.20198 24.9842 4.43564 24.396 4.43564C9.9802 4.43564 4.43564 9.9802 4.43564 24.396C4.43564 24.9842 4.20198 25.5484 3.78606 25.9643C3.37014 26.3802 2.80602 26.6139 2.21782 26.6139Z" fill="#663191"/>
<path d="M46.5743 70.9713C45.9861 70.9713 45.422 70.7376 45.006 70.3217C44.5901 69.9058 44.3564 69.3417 44.3564 68.7535C44.3564 68.1653 44.5901 67.6011 45.006 67.1852C45.422 66.7693 45.9861 66.5356 46.5743 66.5356C60.9901 66.5356 66.5347 60.9911 66.5347 46.5752C66.5347 45.987 66.7683 45.4229 67.1842 45.007C67.6002 44.5911 68.1643 44.3574 68.7525 44.3574C69.3407 44.3574 69.9048 44.5911 70.3207 45.007C70.7366 45.4229 70.9703 45.987 70.9703 46.5752C70.9703 63.2089 63.2079 70.9713 46.5743 70.9713Z" fill="#663191"/>
</svg>
