<svg width="27" height="27" viewBox="0 0 27 27" fill="none" xmlns="http://www.w3.org/2000/svg">
<path d="M10.8741 14.8234C10.8413 14.5767 10.6127 14.403 10.3678 14.4381C10.1216 14.471 9.94929 14.6978 9.98257 14.9444C10.4583 18.4538 9.19185 21.9993 6.59553 24.4282C6.41416 24.5979 6.40472 24.8828 6.5748 25.0646C6.66303 25.1591 6.7827 25.2067 6.90332 25.2067C7.01359 25.2067 7.12382 25.1667 7.21068 25.0852C10.0195 22.4575 11.389 18.6213 10.8741 14.8234Z" fill="#B1B1B1"/>
<path d="M4.35425 15.3491C4.34977 15.328 4.34391 15.3077 4.33669 15.2875C4.24576 14.8203 4.19044 14.3455 4.17061 13.8748C4.1607 13.6264 3.94831 13.4351 3.70255 13.4436C3.45414 13.4535 3.26106 13.6632 3.2714 13.9117C3.29392 14.4509 3.35963 14.9945 3.46669 15.5283C3.47076 15.549 3.47661 15.5693 3.48378 15.589C3.77723 17.1592 3.20563 18.7704 1.98244 19.8064C1.79295 19.9675 1.76911 20.2515 1.92981 20.441C2.01936 20.5463 2.14583 20.6003 2.27362 20.6003C2.37667 20.6003 2.47973 20.5652 2.56437 20.4932C4.05358 19.2316 4.73946 17.2605 4.35425 15.3491Z" fill="#B1B1B1"/>
<path d="M6.88283 18.933C6.65104 18.843 6.39003 18.9578 6.3 19.1896C5.81754 20.4322 5.01785 21.5347 3.98811 22.3781C3.79593 22.5352 3.7676 22.8192 3.92509 23.0113C4.01422 23.1198 4.14337 23.176 4.27343 23.176C4.37379 23.176 4.47505 23.1428 4.55875 23.0743C5.70774 22.1328 6.60014 20.9024 7.1393 19.5153C7.22933 19.2841 7.11415 19.023 6.88283 18.933Z" fill="#B1B1B1"/>
<path d="M2.70039 6.17716C2.7805 6.23565 2.87321 6.26402 2.96545 6.26402C3.10405 6.26402 3.24086 6.2001 3.32909 6.07906C5.18869 3.53137 7.91639 1.78516 11.01 1.16141C13.7548 0.607379 16.5316 0.965639 19.0388 2.19653C19.2625 2.30681 19.5321 2.21362 19.641 1.99084C19.7508 1.76765 19.6585 1.49805 19.4353 1.38866C16.749 0.0695932 13.7738 -0.313824 10.8323 0.278864C7.5172 0.947181 4.59463 2.81849 2.60229 5.54845C2.45557 5.74918 2.49966 6.03091 2.70039 6.17716Z" fill="#B1B1B1"/>
<path d="M1.16238 15.9937C1.16012 15.9829 1.15294 15.9748 1.14978 15.964C0.589474 13.1521 0.981487 10.3204 2.28569 7.77273C2.39908 7.55175 2.31179 7.28041 2.09039 7.16697C1.86899 7.0531 1.59807 7.14133 1.48462 7.36274C0.0818018 10.1021 -0.337636 13.1485 0.272192 16.1719C0.275778 16.1886 0.285219 16.2021 0.290176 16.2178C0.326619 16.3956 0.36533 16.5715 0.408102 16.7462C0.458943 16.9514 0.642582 17.0882 0.845102 17.0882C0.880649 17.0882 0.91667 17.0841 0.953113 17.0756C1.19434 17.0157 1.34196 16.7718 1.28252 16.5306C1.23886 16.3537 1.19835 16.1746 1.16238 15.9937Z" fill="#B1B1B1"/>
<path d="M11.4754 3.47242C7.30574 4.31309 4.14058 7.56381 3.41193 11.7537C3.36963 11.9985 3.53344 12.2316 3.77825 12.2744C4.02624 12.3167 4.25618 12.1524 4.29895 11.9081C4.96321 8.0863 7.85028 5.12186 11.6536 4.35449C16.6995 3.33873 21.6311 6.6146 22.6478 11.6596C22.6504 11.674 22.654 11.6875 22.6581 11.701C22.7396 12.1092 22.8098 12.5134 22.8669 12.9031C22.8997 13.1268 23.0919 13.2874 23.3115 13.2874C23.3336 13.2874 23.3556 13.2861 23.3777 13.2825C23.6234 13.2464 23.7935 13.0178 23.7575 12.7721C23.6963 12.354 23.6202 11.9202 23.5325 11.4823C23.5293 11.4679 23.5257 11.453 23.5212 11.4391C22.3872 5.93151 16.9925 2.36041 11.4754 3.47242Z" fill="#B1B1B1"/>
<path d="M17.1432 12.7693C16.9469 11.7958 16.3835 10.9569 15.5563 10.4074C14.7291 9.85746 13.7372 9.66396 12.7642 9.85925C11.3029 10.154 10.1625 11.2868 9.85823 12.7454C9.80739 12.9889 9.96355 13.2274 10.2066 13.2782C10.451 13.3286 10.6886 13.1729 10.7394 12.9294C10.9698 11.8237 11.8344 10.965 12.9419 10.7417C13.68 10.5937 14.4311 10.7404 15.058 11.1567C15.6701 11.5635 16.0914 12.1792 16.2493 12.8948C16.2511 12.9128 16.2534 12.9308 16.257 12.9488C16.4851 14.0779 16.6022 15.2305 16.6053 16.3741C16.6062 16.6225 16.8074 16.8232 17.0553 16.8232H17.0562C17.3051 16.8227 17.5063 16.6207 17.5054 16.3723C17.5022 15.1886 17.383 13.996 17.1508 12.8273C17.1494 12.808 17.1467 12.7886 17.1432 12.7693Z" fill="#B1B1B1"/>
<path d="M13.9428 13.4156C13.8938 13.1721 13.6566 13.0156 13.4127 13.0632C13.1692 13.1123 13.0112 13.3499 13.0603 13.5934C13.946 17.9863 12.7551 22.4385 9.7934 25.8094C9.62959 25.9961 9.64805 26.2806 9.83433 26.4449C9.91982 26.5196 10.026 26.5565 10.1314 26.5565C10.2565 26.5565 10.3807 26.5051 10.4698 26.4039C13.6183 22.8198 14.8843 18.0862 13.9428 13.4156Z" fill="#B1B1B1"/>
<path d="M26.7302 10.8378C26.7275 10.8243 26.7185 10.814 26.7145 10.8005C26.0214 7.41115 24.0822 4.45077 21.2496 2.46291C21.0462 2.31935 20.7649 2.3693 20.6227 2.57271C20.48 2.77613 20.5291 3.05697 20.7325 3.19963C23.386 5.06192 25.2001 7.83824 25.8409 11.0169C25.8432 11.029 25.8504 11.0385 25.8535 11.0502C26.0318 11.9458 26.1137 12.8571 26.0966 13.7599C26.0921 14.0083 26.2897 14.2136 26.5381 14.2185H26.5471C26.7915 14.2185 26.9921 14.0222 26.9967 13.777C27.0151 12.7969 26.9255 11.8086 26.7302 10.8378Z" fill="#B1B1B1"/>
<path d="M20.3358 12.1269C19.9677 10.2997 18.9101 8.7259 17.3579 7.69484C15.8057 6.66336 13.9452 6.29925 12.1185 6.66695C8.34801 7.42708 5.89841 11.1138 6.65897 14.8843C6.66435 14.9108 6.672 14.936 6.68149 14.9604C6.82594 15.7124 6.8579 16.4748 6.77647 17.2281C6.74995 17.4752 6.92858 17.6971 7.17614 17.7241C7.41779 17.7484 7.6451 17.572 7.67162 17.3244C7.76524 16.4531 7.72384 15.5719 7.54874 14.7047C7.54336 14.6786 7.53571 14.6534 7.52622 14.6295C6.91233 11.3721 9.0379 8.20647 12.2963 7.54944C13.8871 7.22857 15.5082 7.54627 16.8597 8.44459C18.2036 9.33747 19.1217 10.6975 19.4479 12.2767C19.4493 12.2861 19.4506 12.2961 19.4524 12.3055C19.9528 14.7848 19.9997 17.2978 19.5919 19.7735C19.5518 20.0192 19.7179 20.2506 19.9632 20.2911C19.9879 20.2947 20.0122 20.2969 20.0365 20.2969C20.253 20.2969 20.4438 20.1403 20.4803 19.9198C20.9038 17.3455 20.857 14.7339 20.3408 12.1565C20.3394 12.1467 20.3381 12.1368 20.3358 12.1269Z" fill="#B1B1B1"/>
<path d="M23.5015 14.4423C23.2535 14.4581 23.065 14.6718 23.0807 14.9198C23.2432 17.5 22.988 20.076 22.3219 22.576C22.258 22.8158 22.4006 23.0625 22.641 23.1264C22.6797 23.1367 22.7188 23.1421 22.7571 23.1421C22.956 23.1421 23.1378 23.0089 23.1918 22.8073C23.8831 20.2133 24.1477 17.5404 23.979 14.8631C23.9637 14.6151 23.7553 14.4266 23.5015 14.4423Z" fill="#B1B1B1"/>
<path d="M19.7141 21.4416C19.4724 21.3763 19.2271 21.5194 19.1632 21.7597C18.8203 23.0392 18.3527 24.2917 17.7721 25.4825C17.6632 25.7062 17.7563 25.9753 17.9796 26.0842C18.0435 26.1153 18.1101 26.1297 18.1767 26.1297C18.3432 26.1297 18.5035 26.037 18.5813 25.8768C19.1871 24.6342 19.6749 23.3273 20.0322 21.9924C20.0971 21.7525 19.9544 21.5055 19.7141 21.4416Z" fill="#B1B1B1"/>
<path d="M16.9928 17.9951C16.7475 17.9672 16.5225 18.1441 16.4946 18.3911C16.1733 21.2052 15.1535 23.9361 13.5446 26.2876C13.4042 26.4924 13.4564 26.7723 13.6616 26.9127C13.7395 26.9663 13.8277 26.9915 13.9155 26.9915C14.059 26.9915 14.2004 26.9231 14.2872 26.7957C15.979 24.3236 17.0514 21.4527 17.389 18.4933C17.4168 18.2462 17.2394 18.023 16.9928 17.9951Z" fill="#B1B1B1"/>
</svg>
