<svg width="32" height="29" viewBox="0 0 32 29" fill="none" xmlns="http://www.w3.org/2000/svg">
<rect x="23" y="5" width="7" height="1" rx="0.5" fill="#FDB713"/>
<rect x="27" y="2" width="7" height="1" rx="0.5" transform="rotate(90 27 2)" fill="#FDB713"/>
<path opacity="0.3" fill-rule="evenodd" clip-rule="evenodd" d="M26.5 11C29.5376 11 32 8.53757 32 5.5C32 2.46243 29.5376 0 26.5 0C23.4624 0 21 2.46243 21 5.5C21 8.53757 23.4624 11 26.5 11Z" fill="#FDB713"/>
<path opacity="0.3" fill-rule="evenodd" clip-rule="evenodd" d="M20.5 19C21.3284 19 22 18.3284 22 17.5C22 16.6716 21.3284 16 20.5 16C19.6716 16 19 16.6716 19 17.5C19 18.3284 19.6716 19 20.5 19Z" fill="#FDB713"/>
<rect opacity="0.3" x="2.40039" y="10.4492" width="18" height="7" rx="1" transform="rotate(-15 2.40039 10.4492)" fill="#FDB713"/>
<path fill-rule="evenodd" clip-rule="evenodd" d="M4 9C2.89543 9 2 9.89543 2 11V23C2 24.1046 2.89543 25 4 25H20C21.1046 25 22 24.1046 22 23V20.6632C21.5454 20.8792 21.0368 21 20.5 21C18.567 21 17 19.433 17 17.5C17 15.567 18.567 14 20.5 14C21.0368 14 21.5454 14.1208 22 14.3368V11C22 9.89543 21.1046 9 20 9H4Z" fill="#FDB713"/>
</svg>
