<svg width="24" height="24" viewBox="0 0 24 24" fill="none" xmlns="http://www.w3.org/2000/svg">
<path fill-rule="evenodd" clip-rule="evenodd" d="M11.0957 17.96C11.3881 17.9858 11.6895 17.9993 12.0002 17.9993C16.9093 17.9993 21.0002 11.9993 21.0002 11.9993C21.0002 11.9993 20.3306 11.0172 19.2081 9.84766L11.0957 17.96Z" fill="white" fill-opacity="0.5"/>
<path fill-rule="evenodd" clip-rule="evenodd" d="M14.5051 6.49485C13.7076 6.18695 12.8665 6 12 6C5.45455 6 3 12 3 12C3 12 3.75006 13.8335 5.52661 15.4734L9 12C9 10.3431 10.3431 9 12 9L14.5051 6.49485Z" fill="white" fill-opacity="0.5"/>
<rect opacity="0.3" x="5.09961" y="18.4355" width="19" height="2" transform="rotate(-45 5.09961 18.4355)" fill="white" fill-opacity="0.5"/>
</svg>
