<svg width="16" height="16" viewBox="0 0 16 16" fill="none" xmlns="http://www.w3.org/2000/svg">
<path d="M2.40964 13.1182H3.27711V16L7.44096 13.1182H13.5904C14.9205 13.1182 16 12.0903 16 10.8237V2.29446C16 1.02792 14.9205 0 13.5904 0H2.40964C1.07952 0 0 1.02792 0 2.29446V10.8237C0 12.0903 1.07952 13.1182 2.40964 13.1182ZM1.13735 2.29446C1.13735 1.63365 1.71566 1.08298 2.40964 1.08298H13.5904C14.2843 1.08298 14.8627 1.63365 14.8627 2.29446V10.8237C14.8627 11.4845 14.2843 12.0352 13.5904 12.0352H7.0747L4.43374 13.8707V12.0352H2.40964C1.71566 12.0352 1.13735 11.4845 1.13735 10.8237V2.29446ZM11.894 4.99477H4.10602V3.91179H11.894V4.99477ZM11.894 7.03225H4.10602V5.94927H11.894V7.03225ZM11.894 9.05137H4.10602V7.96839H11.894V9.05137Z" fill="#2D1145"/>
</svg>
