<svg width="48" height="30" viewBox="0 0 48 30" fill="none" xmlns="http://www.w3.org/2000/svg">
<path fill-rule="evenodd" clip-rule="evenodd" d="M32.9535 29.6098C40.8747 29.6098 47.296 23.1063 47.296 15.0838C47.296 7.0614 40.8747 0.557922 32.9535 0.557922C29.4036 0.557922 26.1548 1.86416 23.6504 4.02795C21.1459 1.86423 17.8972 0.558043 14.3473 0.558043C6.42621 0.558043 0.00488281 7.06152 0.00488281 15.084C0.00488281 23.1064 6.42621 29.6099 14.3473 29.6099C17.8973 29.6099 21.146 28.3037 23.6505 26.1399C26.155 28.3036 29.4036 29.6098 32.9535 29.6098Z" fill="#ED0006"/>
<path fill-rule="evenodd" clip-rule="evenodd" d="M23.6509 26.1395C26.7346 23.4752 28.69 19.5107 28.69 15.0837C28.69 10.6567 26.7346 6.6923 23.6509 4.02798C26.1554 1.8641 29.4042 0.5578 32.9542 0.5578C40.8754 0.5578 47.2967 7.06128 47.2967 15.0837C47.2967 23.1062 40.8754 29.6097 32.9542 29.6097C29.4042 29.6097 26.1554 28.3034 23.6509 26.1395Z" fill="#F9A000"/>
<path fill-rule="evenodd" clip-rule="evenodd" d="M23.6506 26.1399C26.7344 23.4755 28.6899 19.511 28.6899 15.084C28.6899 10.6569 26.7344 6.69237 23.6506 4.02805C20.5668 6.69237 18.6113 10.6569 18.6113 15.084C18.6113 19.511 20.5668 23.4755 23.6506 26.1399Z" fill="#FF5E00"/>
</svg>
