<svg width="9" height="16" viewBox="0 0 9 16" fill="none" xmlns="http://www.w3.org/2000/svg">
<path d="M8.13692 14.7591C7.98058 14.9121 7.77049 14.9985 7.5512 15C7.33191 14.9985 7.12182 14.9121 6.96548 14.7591L0.741219 8.56759C0.586702 8.41258 0.5 8.2031 0.5 7.98477C0.5 7.76644 0.586702 7.55696 0.741219 7.40195L6.96353 1.2085C7.12171 1.06862 7.32762 0.994162 7.53915 1.00036C7.75068 1.00655 7.95183 1.09293 8.10147 1.24183C8.25111 1.39073 8.33792 1.59089 8.34415 1.80137C8.35037 2.01185 8.27554 2.21675 8.13497 2.37414L2.50033 7.98477L8.13692 13.5935C8.28958 13.7494 8.375 13.9586 8.375 14.1763C8.375 14.394 8.28958 14.6031 8.13692 14.7591Z" fill="#291539" stroke="#291539"/>
</svg>
