<svg width="35" height="30" viewBox="0 0 35 30" fill="none" xmlns="http://www.w3.org/2000/svg">
<path opacity="0.3" fill-rule="evenodd" clip-rule="evenodd" d="M20.5 19.75C21.3284 19.75 22 19.0784 22 18.25C22 17.4216 21.3284 16.75 20.5 16.75C19.6716 16.75 19 17.4216 19 18.25C19 19.0784 19.6716 19.75 20.5 19.75Z" fill="#FDB713"/>
<rect opacity="0.3" x="2.40088" y="11.1986" width="18" height="7" rx="1" transform="rotate(-15 2.40088 11.1986)" fill="#FDB713"/>
<path fill-rule="evenodd" clip-rule="evenodd" d="M4 9.75C2.89543 9.75 2 10.6454 2 11.75V23.75C2 24.8546 2.89543 25.75 4 25.75H20C21.1046 25.75 22 24.8546 22 23.75V21.4132C21.5454 21.6292 21.0368 21.75 20.5 21.75C18.567 21.75 17 20.183 17 18.25C17 16.317 18.567 14.75 20.5 14.75C21.0368 14.75 21.5454 14.8708 22 15.0868V11.75C22 10.6454 21.1046 9.75 20 9.75H4Z" fill="#FDB713"/>
<path opacity="0.3" d="M28.3768 9.04318C28.3768 9.26687 28.1114 9.38443 27.9457 9.23412L24.4601 6.07185C24.3481 5.97024 24.3472 5.7945 24.4581 5.69175L27.9438 2.46367C28.1088 2.31082 28.3768 2.42788 28.3768 2.65283V9.04318Z" fill="#FDBD26"/>
<path d="M34.6772 2.84579C34.6772 3.22176 34.7578 4.70553 33.5873 5.88269C32.7996 6.67493 31.6206 6.81234 30.2107 6.875V9.04301C30.2107 9.2667 29.9453 9.38425 29.7797 9.23395L26.294 6.07168C26.182 5.97007 26.1811 5.79433 26.2921 5.69158L29.7777 2.4635C29.9427 2.31065 30.2107 2.4277 30.2107 2.65265V4.8125C31.1059 4.78788 31.7435 4.73094 32.3229 4.54663C33.4426 4.1904 34.1071 2.66284 34.2863 2.19754C34.3172 2.1173 34.3937 2.0625 34.4797 2.0625V2.0625C34.59 2.0625 34.6794 2.1519 34.6791 2.26223C34.6784 2.46534 34.6772 2.69882 34.6772 2.84579Z" fill="#FDBD26"/>
</svg>
