<svg width="14" height="15" viewBox="0 0 14 15" fill="none" xmlns="http://www.w3.org/2000/svg">
<path fill-rule="evenodd" clip-rule="evenodd" d="M2.83301 4.66667V6.33333H1.99967C1.0792 6.33333 0.333008 7.07952 0.333008 8V13C0.333008 13.9205 1.0792 14.6667 1.99967 14.6667H11.9997C12.9201 14.6667 13.6663 13.9205 13.6663 13V8C13.6663 7.07952 12.9201 6.33333 11.9997 6.33333H11.1663V4.66667C11.1663 2.36548 9.30086 0.5 6.99967 0.5C4.69849 0.5 2.83301 2.36548 2.83301 4.66667ZM4.49967 4.66667C4.49967 3.28595 5.61896 2.16667 6.99967 2.16667C8.38039 2.16667 9.49967 3.28595 9.49967 4.66667V6.33333H4.49967V4.66667Z" fill="#2D1145"/>
</svg>
