<svg width="19" height="17" viewBox="0 0 19 17" fill="none" xmlns="http://www.w3.org/2000/svg">
<path d="M0.554688 14.791C0.554688 13.9707 0.378906 10.7334 2.93262 8.16504C4.65137 6.43652 7.22363 6.13672 10.2998 6V1.69308C10.2998 1.04233 11.0718 0.70036 11.5537 1.13761L18.6938 7.61526C19.0196 7.91085 19.0222 8.42209 18.6995 8.721L11.5594 15.3335C11.0793 15.7781 10.2998 15.4376 10.2998 14.7832V10.5C8.34668 10.5537 6.95543 10.6779 5.69141 11.0801C3.24831 11.8573 1.7986 15.1902 1.40766 16.2054C1.34024 16.3804 1.17326 16.5 0.985659 16.5C0.744944 16.5 0.549879 16.3049 0.550634 16.0642C0.552029 15.6211 0.554688 15.1117 0.554688 14.791Z" fill="#FDB713"/>
</svg>
