<svg width="24" height="24" viewBox="0 0 24 24" fill="none" xmlns="http://www.w3.org/2000/svg">
<path d="M23 22H22V14H20V22H16V14H14V22H10V14H8V22H4V14H2V22H1C0.448 22 0 22.447 0 23C0 23.553 0.448 24 1 24H23C23.552 24 24 23.553 24 23C24 22.447 23.552 22 23 22Z" fill="white"/>
<path fill-rule="evenodd" clip-rule="evenodd" d="M12.479 1.12199L23.479 7.12199C23.8 7.29699 24 7.63399 24 7.99999V11C24 11.553 23.552 12 23 12H1C0.448 12 0 11.553 0 11V7.99999C0 7.63399 0.2 7.29699 0.521 7.12199L11.521 1.12199C11.82 0.959988 12.18 0.959988 12.479 1.12199ZM10 6.99999C10 8.10499 10.895 8.99999 12 8.99999C13.105 8.99999 14 8.10499 14 6.99999C14 5.89499 13.105 4.99999 12 4.99999C10.895 4.99999 10 5.89499 10 6.99999Z" fill="white"/>
</svg>
