<svg width="161" height="169" viewBox="0 0 161 169" fill="none" xmlns="http://www.w3.org/2000/svg">
<g filter="url(#filter0_d_7_8322)">
<path d="M76.5003 33.55C78.9755 32.1209 82.0251 32.1209 84.5003 33.55L112.232 49.5608C114.707 50.9898 116.232 53.6308 116.232 56.489V88.5105C116.232 91.3686 114.707 94.0096 112.232 95.4387L84.5003 111.449C82.0251 112.879 78.9755 112.879 76.5003 111.449L48.7689 95.4387C46.2937 94.0096 44.7689 91.3686 44.7689 88.5105V56.489C44.7689 53.6308 46.2937 50.9898 48.7689 49.5608L76.5003 33.55Z" fill="url(#paint0_linear_7_8322)"/>
</g>
<path d="M76.5 15.3094C78.9752 13.8803 82.0248 13.8803 84.5 15.3094L128.029 40.4406C130.504 41.8697 132.029 44.5107 132.029 47.3688V97.6312C132.029 100.489 130.504 103.13 128.029 104.559L84.5 129.691C82.0248 131.12 78.9752 131.12 76.5 129.691L32.9715 104.559C30.4963 103.13 28.9715 100.489 28.9715 97.6312V47.3688C28.9715 44.5107 30.4963 41.8697 32.9715 40.4406L76.5 15.3094Z" fill="url(#paint1_linear_7_8322)"/>
<path d="M76.5003 22.2583C78.9755 20.8292 82.0251 20.8292 84.5003 22.2583L122.011 43.915C124.486 45.3441 126.011 47.9851 126.011 50.8432V94.1567C126.011 97.0148 124.486 99.6558 122.011 101.085L84.5003 122.742C82.0251 124.171 78.9755 124.171 76.5003 122.742L38.9897 101.085C36.5145 99.6558 34.9897 97.0148 34.9897 94.1567V50.8432C34.9897 47.9851 36.5145 45.3441 38.9897 43.915L76.5003 22.2583Z" fill="#663191"/>
<path opacity="0.3" d="M102.708 53.604C103.617 52.5345 105.221 52.4044 106.291 53.3135C107.36 54.2226 107.491 55.8267 106.581 56.8962L84.9772 82.3129C84.0538 83.3992 82.4177 83.5137 81.352 82.5665L69.9146 72.3998C68.8654 71.4672 68.7709 69.8607 69.7035 68.8115C70.6361 67.7624 72.2426 67.6679 73.2917 68.6005L82.787 77.0407L102.708 53.604Z" fill="white"/>
<path d="M90.0002 56.1456C90.9093 55.076 92.5134 54.946 93.5829 55.8551C94.6525 56.7642 94.7825 58.3682 93.8734 59.4378L72.2692 84.8545C71.3458 85.9408 69.7097 86.0552 68.644 85.108L57.2065 74.9414C56.1574 74.0088 56.0629 72.4023 56.9955 71.3531C57.9281 70.3039 59.5346 70.2094 60.5837 71.142L70.079 79.5823L90.0002 56.1456Z" fill="white"/>
<defs>
<filter id="filter0_d_7_8322" x="0.768555" y="0.47821" width="159.463" height="168.043" filterUnits="userSpaceOnUse" color-interpolation-filters="sRGB">
<feFlood flood-opacity="0" result="BackgroundImageFix"/>
<feColorMatrix in="SourceAlpha" type="matrix" values="0 0 0 0 0 0 0 0 0 0 0 0 0 0 0 0 0 0 127 0" result="hardAlpha"/>
<feOffset dy="12"/>
<feGaussianBlur stdDeviation="22"/>
<feColorMatrix type="matrix" values="0 0 0 0 0 0 0 0 0 0 0 0 0 0 0 0 0 0 0.25 0"/>
<feBlend mode="normal" in2="BackgroundImageFix" result="effect1_dropShadow_7_8322"/>
<feBlend mode="normal" in="SourceGraphic" in2="effect1_dropShadow_7_8322" result="shape"/>
</filter>
<linearGradient id="paint0_linear_7_8322" x1="80.5003" y1="31.2406" x2="80.5003" y2="113.759" gradientUnits="userSpaceOnUse">
<stop stop-color="#FD6D76"/>
<stop offset="1" stop-color="#FEA54B"/>
</linearGradient>
<linearGradient id="paint1_linear_7_8322" x1="35.3321" y1="-41.2883" x2="140" y2="155.453" gradientUnits="userSpaceOnUse">
<stop stop-color="#9D9D9D"/>
<stop offset="0.5" stop-color="white"/>
<stop offset="1" stop-color="#A2A2A2"/>
</linearGradient>
</defs>
</svg>
