<svg width="35" height="28" viewBox="0 0 35 28" fill="none" xmlns="http://www.w3.org/2000/svg">
<path opacity="0.3" fill-rule="evenodd" clip-rule="evenodd" d="M20.5 18C21.3284 18 22 17.3284 22 16.5C22 15.6716 21.3284 15 20.5 15C19.6716 15 19 15.6716 19 16.5C19 17.3284 19.6716 18 20.5 18Z" fill="#FDB713"/>
<rect opacity="0.3" x="2.40039" y="9.44922" width="18" height="7" rx="1" transform="rotate(-15 2.40039 9.44922)" fill="#FDB713"/>
<path fill-rule="evenodd" clip-rule="evenodd" d="M4 8C2.89543 8 2 8.89543 2 10V22C2 23.1046 2.89543 24 4 24H20C21.1046 24 22 23.1046 22 22V19.6632C21.5454 19.8792 21.0368 20 20.5 20C18.567 20 17 18.433 17 16.5C17 14.567 18.567 13 20.5 13C21.0368 13 21.5454 13.1208 22 13.3368V10C22 8.89543 21.1046 8 20 8H4Z" fill="#FDB713"/>
<path opacity="0.3" d="M30.623 1.95639C30.623 1.7327 30.8883 1.61515 31.054 1.76545L34.5397 4.92772C34.6517 5.02933 34.6526 5.20507 34.5416 5.30782L31.056 8.5359C30.8909 8.68875 30.623 8.5717 30.623 8.34675V1.95639Z" fill="#FDBD26"/>
<path d="M24.3226 8.15421C24.3226 7.77824 24.242 6.29447 25.4124 5.11731C26.2002 4.32507 27.3792 4.18766 28.7891 4.125V1.95699C28.7891 1.7333 29.0544 1.61575 29.2201 1.76605L32.7058 4.92832C32.8177 5.02993 32.8187 5.20567 32.7077 5.30842L29.2221 8.5365C29.057 8.68935 28.7891 8.5723 28.7891 8.34735V6.1875C27.8939 6.21212 27.2562 6.26906 26.6769 6.45337C25.5571 6.8096 24.8927 8.33716 24.7135 8.80246C24.6826 8.8827 24.6061 8.9375 24.5201 8.9375C24.4098 8.9375 24.3203 8.8481 24.3207 8.73777C24.3213 8.53466 24.3226 8.30118 24.3226 8.15421Z" fill="#FDBD26"/>
</svg>
